# xmcd
#
# Track frame offsets:
#	150
#	16145
#	28441
#	43702
#	59911
#	73888
#	87264
#	102695
#	116343
#	128481
#	143256
#	158517
#	173470
#	188590
#	202916
#	215134
#	234052
#	252970
#	271328
#	291506
#
# Disc length: 4215 seconds
#
# Revision: 1
# Processed by: cddbd v1.5.2PL0 Copyright (c) Steve Scherf et al.
# Submitted via: audiograbber 1.83.01
#
DISCID=1c107514
DTITLE=Various Artist - CDX 061
DYEAR=1993
DGENRE=Country
TTITLE0=Darryl and Don Ellis - 10 Minutes Till
TTITLE1=Jim Wise - Cowboy Cadillac
TTITLE2=Alison Krauss and Union Station - Every Time You Say Goodbye
TTITLE3=Lorrie Morgan - Half Enough
TTITLE4=Dude Mowrey - Hold On Elroy
TTITLE5=Billy Dean - I'm Not Built That Way
TTITLE6=Suzy Bogguss - Just Like The Weather
TTITLE7=Dennis Robbins - Looking For A Thing Called Love
TTITLE8=Martina McBride - My Baby Loves Me
TTITLE9=Vince Gill - One More Last Chance [Remix]
TTITLE10=Joe Diffie - Prop Me Up Beside The Jukebox (If I Die) [Edited]
TTITLE11=Johnny Rodriguez - Run For The Border
TTITLE12=Confederate Railroad - Trashy Women
TTITLE13=Ronnie McDowell - Yippy Ti Yi Yo
TTITLE14=Reddmann - The Sweetest Song On Earth (The Candy Bar Song)
TTITLE15=Alan Jackson - Chattahoochee [Dance Mix]
TTITLE16=Alan Jackson - Chattahoochee [Dance Mix]
TTITLE17=Shenandoah - Janie Baker's Love Slave [Dance Mix]
TTITLE18=Confederate Railroad - Trashy Women [Dance Mix]
TTITLE19=Ronnie McDowel - Yippy Ti Yi Yo [Dance Mix]
EXTD=
EXTT0=
EXTT1=
EXTT2=
EXTT3=
EXTT4=
EXTT5=
EXTT6=
EXTT7=
EXTT8=
EXTT9=
EXTT10=
EXTT11=
EXTT12=
EXTT13=
EXTT14=
EXTT15=
EXTT16=
EXTT17=
EXTT18=
EXTT19=
PLAYORDER=
